<?xml version="1.0" standalone="no"?>
<!-- Generator: Adobe Fireworks 10, Export SVG Extension by Aaron Beall (http://fireworks.abeall.com) . Version: 0.6.1  -->
<!DOCTYPE svg PUBLIC "-//W3C//DTD SVG 1.1//EN" "http://www.w3.org/Graphics/SVG/1.1/DTD/svg11.dtd">
<svg id="Logo-Page%201" viewBox="0 0 377 169" style="background-color:#ffffff00" version="1.1"
	xmlns="http://www.w3.org/2000/svg" xmlns:xlink="http://www.w3.org/1999/xlink" xml:space="preserve"
	x="0px" y="0px" width="377px" height="169px"
>
	<path d="M 30.6213 53.9375 C 34.5744 49.3125 39.9182 47 46.6525 47 C 53.6057 47 59.0588 49.2969 63.0275 53.8906 C 66.9807 58.4844 68.965 64.75 68.965 72.7188 C 68.965 80.7031 67.0119 86.9063 63.1213 91.3438 C 59.215 95.7813 53.7932 98 46.8244 98 C 39.8557 98 34.4182 95.7813 30.5275 91.3438 C 26.6213 86.9063 24.6838 80.7031 24.6838 72.7188 C 24.6838 64.8125 26.6525 58.5625 30.6213 53.9375 L 30.6213 53.9375 ZM 26.965 168 L 26.965 120 C 26.965 116.7188 26.8869 113.8125 26.7307 111.25 C 26.5744 108.6875 26.3557 106.3281 26.0588 104.1563 C 29.5119 109.625 33.6682 113.625 38.5432 116.1719 C 43.4025 118.7188 49.3244 120 56.3088 120 C 67.8713 120 77.215 115.7031 84.3088 107.1094 C 91.4025 98.5156 94.965 87.0938 94.965 72.8594 C 94.965 58.1094 91.4338 46.625 84.4025 38.375 C 77.3557 30.125 67.6057 26 55.1369 26 C 48.6838 26 43.0275 27.4531 38.1682 30.3281 C 33.3088 33.2031 29.215 37.5469 25.8713 43.3594 L 25.8713 29 L 0.965 29 L 0.965 168 L 26.965 168 L 26.965 168 Z" fill="#0087cb"/>
	<path d="M 155.92 89.5781 C 151.7013 93.8594 146.1075 96 139.1388 96 C 132.0919 96 126.5138 93.8594 122.4044 89.5781 C 118.2794 85.2969 116.2325 79.5938 116.2325 72.4531 C 116.2325 65.2656 118.2794 59.5625 122.4044 55.3438 C 126.5138 51.125 132.0919 49 139.1388 49 C 146.17 49 151.7794 51.125 155.9669 55.375 C 160.1388 59.625 162.2325 65.3281 162.2325 72.4531 C 162.2325 79.5938 160.1231 85.2969 155.92 89.5781 L 155.92 89.5781 ZM 174.4513 39.3125 C 165.2638 30.4375 153.5606 26 139.3731 26 C 125.2169 26 113.4981 30.5 104.1856 39.4844 C 94.8731 48.4688 90.2325 59.6563 90.2325 73.0469 C 90.2325 86.5 94.8575 97.6875 104.1075 106.6094 C 113.3575 115.5469 125.1075 120 139.3731 120 C 153.4981 120 165.1856 115.5469 174.4044 106.6094 C 183.6231 97.6875 188.2325 86.5 188.2325 73.0469 C 188.2325 59.4219 183.6388 48.1875 174.4513 39.3125 L 174.4513 39.3125 Z" fill="#0087cb"/>
	<path d="M 214.1406 29 L 187.5 29 L 187.5 117 L 214.5 117 L 214.5 78.4688 C 214.5 68.9531 216.1719 62.1563 219.5156 58.0938 C 222.8594 54.0313 228.3594 52 236 52 C 238.1094 52 240.125 52.25 242.0313 52.75 C 243.9375 53.25 247.8438 54 249.7188 55 L 251.5 27.1875 L 249.9063 26.9063 C 246.2656 26.3125 243.6563 26 242.0625 26 C 235.0625 26 229.2031 28.1094 224.4844 32.3125 C 219.75 36.5156 216.125 42.8438 213.5938 51.2969 L 214.1406 29 L 214.1406 29 Z" fill="#0087cb"/>
	<path d="M 274.7675 117 L 274.7675 49 L 286.7675 49 L 286.7675 29 L 274.7675 29 L 274.7675 0 L 248.7675 0 L 248.7675 29 L 236.7675 29 L 236.7675 49 L 248.7675 49 L 248.7675 117 L 274.7675 117 L 274.7675 117 Z" fill="#0087cb"/>
	<path d="M 343.7225 89.5781 C 339.5037 93.8594 333.91 96 326.9412 96 C 319.8943 96 314.3162 93.8594 310.2068 89.5781 C 306.0818 85.2969 304.035 79.5938 304.035 72.4531 C 304.035 65.2656 306.0818 59.5625 310.2068 55.3438 C 314.3162 51.125 319.8943 49 326.9412 49 C 333.9725 49 339.5818 51.125 343.7693 55.375 C 347.9412 59.625 350.035 65.3281 350.035 72.4531 C 350.035 79.5938 347.9256 85.2969 343.7225 89.5781 L 343.7225 89.5781 ZM 362.2537 39.3125 C 353.0662 30.4375 341.3631 26 327.1756 26 C 313.0193 26 301.3006 30.5 291.9881 39.4844 C 282.6756 48.4688 278.035 59.6563 278.035 73.0469 C 278.035 86.5 282.66 97.6875 291.91 106.6094 C 301.16 115.5469 312.91 120 327.1756 120 C 341.3006 120 352.9881 115.5469 362.2068 106.6094 C 371.4256 97.6875 376.035 86.5 376.035 73.0469 C 376.035 59.4219 371.4412 48.1875 362.2537 39.3125 L 362.2537 39.3125 Z" fill="#0087cb"/>
	<path id="Ellipse" d="M 313.0435 73.3636 C 313.0435 65.983 319.0389 60 326.4348 60 C 333.8307 60 339.8261 65.983 339.8261 73.3636 C 339.8261 80.7442 333.8307 86.7273 326.4348 86.7273 C 319.0389 86.7273 313.0435 80.7442 313.0435 73.3636 Z" fill="#0087cb"/>
	<g>
		<path d="M 142.0313 167.6563 C 143.1563 167.4375 144.375 167.0625 145.6563 166.5313 L 145.6563 163.375 C 143.1563 164.4688 140.625 165 138.0625 165 C 135.625 165 133.7344 164.3281 132.3906 162.9688 C 131.0469 161.6094 130.3438 159.625 130.2813 157 L 146.6719 157 L 146.6719 154.7188 C 146.6719 151.5 145.7969 148.9219 144.0625 146.9531 C 142.3125 144.9844 139.9531 144 136.9688 144 C 133.7656 144 131.2188 145.1094 129.3281 147.2969 C 127.4375 149.5 126.5 152.4688 126.5 156.1875 C 126.5 159.9063 127.5156 162.7969 129.5469 164.875 C 131.5781 166.9688 134.375 168 137.9063 168 C 139.5156 168 140.8906 167.8906 142.0313 167.6563 L 142.0313 167.6563 ZM 141.25 148.8125 C 142.25 150.0156 142.7656 151.75 142.7656 154 L 130.3594 154 C 130.5469 151.8125 131.2188 150.1094 132.3594 148.8594 C 133.4844 147.625 135.0156 147 136.9219 147 C 138.7969 147 140.2344 147.6094 141.25 148.8125 L 141.25 148.8125 Z" fill="#666666"/>
		<path d="M 174.1094 140.7188 L 175.6719 137.6563 C 173.1719 136.5625 170.2656 136 166.9531 136 C 163.8281 136 161.125 136.6563 158.8125 137.9688 C 156.5 139.2813 154.75 141.1406 153.5313 143.5469 C 152.3125 145.9531 151.7031 148.7656 151.7031 151.9688 C 151.7031 157.0938 152.9688 161.0469 155.5 163.8281 C 158.0313 166.6094 161.6406 168 166.3125 168 C 169.5313 168 172.2344 167.625 174.4375 166.875 L 174.4375 163.7813 C 171.6094 164.5938 169.0938 165 166.8906 165 C 163.2969 165 160.5469 163.875 158.6094 161.6094 C 156.6719 159.3594 155.7031 156.1563 155.7031 152 C 155.7031 147.9688 156.7031 144.7969 158.7188 142.4844 C 160.7188 140.1719 163.4688 139 166.9375 139 C 169.3281 139 171.7188 139.5781 174.1094 140.7188 L 174.1094 140.7188 Z" fill="#666666"/>
		<path d="M 198.5313 147.2344 C 196.5625 145.0781 193.8906 144 190.5469 144 C 187.0781 144 184.375 145.0625 182.4375 147.1563 C 180.4844 149.2656 179.5156 152.2031 179.5156 155.9844 C 179.5156 158.4219 179.9531 160.5469 180.8594 162.3594 C 181.7656 164.1719 183.0469 165.5781 184.7031 166.5469 C 186.3594 167.5156 188.25 168 190.4063 168 C 193.8594 168 196.5625 166.9531 198.5313 164.8281 C 200.5 162.7031 201.4844 159.7656 201.4844 155.9844 C 201.4844 152.3125 200.5 149.3906 198.5313 147.2344 L 198.5313 147.2344 ZM 185.0938 149.25 C 186.2969 147.75 188.0781 147 190.4531 147 C 192.8281 147 194.6406 147.7656 195.8594 149.2813 C 197.0781 150.8125 197.7031 153.0313 197.7031 155.9531 C 197.7031 158.9219 197.0781 161.1719 195.8594 162.7031 C 194.6406 164.2344 192.8438 165 190.4844 165 C 188.125 165 186.3438 164.2344 185.125 162.6875 C 183.9063 161.1563 183.2969 158.9063 183.2969 155.9531 C 183.2969 152.9844 183.8906 150.75 185.0938 149.25 L 185.0938 149.25 Z" fill="#666666"/>
		<path d="M 242.3438 168 L 242.3438 152.625 C 242.3438 149.625 241.6563 147.4375 240.2969 146.0625 C 238.9375 144.6875 236.8906 144 234.1563 144 C 232.4063 144 230.8438 144.3906 229.4688 145.1719 C 228.0938 145.9531 227.0625 147 226.3438 148.3438 L 226.1719 148.3438 C 225 145.4531 222.5313 144 218.75 144 C 217.1875 144 215.7656 144.3594 214.5156 145.0625 C 213.2656 145.7813 212.2813 146.75 211.5938 148 L 211.4219 148 L 210.8281 144 L 207.875 144 L 207.875 168 L 211.5156 168 L 211.5156 155.6094 C 211.5156 152.5625 212.0469 150.3594 213.1094 149.0156 C 214.1719 147.6719 215.8594 147 218.1563 147 C 219.9063 147 221.2031 147.4844 222.0313 148.4219 C 222.8438 149.3594 223.2656 150.7656 223.2656 152.6406 L 223.2656 168 L 226.9219 168 L 226.9219 154.8125 C 226.9219 152.1563 227.4531 150.2031 228.5469 148.9219 C 229.6406 147.6406 231.3281 147 233.625 147 C 235.3594 147 236.6406 147.4844 237.4688 148.4219 C 238.2813 149.3594 238.7031 150.7656 238.7031 152.6406 L 238.7031 168 L 242.3438 168 L 242.3438 168 Z" fill="#666666"/>
		<path d="M 284.3438 168 L 284.3438 152.625 C 284.3438 149.625 283.6563 147.4375 282.2969 146.0625 C 280.9375 144.6875 278.8906 144 276.1563 144 C 274.4063 144 272.8438 144.3906 271.4688 145.1719 C 270.0938 145.9531 269.0625 147 268.3438 148.3438 L 268.1719 148.3438 C 267 145.4531 264.5313 144 260.75 144 C 259.1875 144 257.7656 144.3594 256.5156 145.0625 C 255.2656 145.7813 254.2813 146.75 253.5938 148 L 253.4219 148 L 252.8281 144 L 249.875 144 L 249.875 168 L 253.5156 168 L 253.5156 155.6094 C 253.5156 152.5625 254.0469 150.3594 255.1094 149.0156 C 256.1719 147.6719 257.8594 147 260.1563 147 C 261.9063 147 263.2031 147.4844 264.0313 148.4219 C 264.8438 149.3594 265.2656 150.7656 265.2656 152.6406 L 265.2656 168 L 268.9219 168 L 268.9219 154.8125 C 268.9219 152.1563 269.4531 150.2031 270.5469 148.9219 C 271.6406 147.6406 273.3281 147 275.625 147 C 277.3594 147 278.6406 147.4844 279.4688 148.4219 C 280.2813 149.3594 280.7031 150.7656 280.7031 152.6406 L 280.7031 168 L 284.3438 168 L 284.3438 168 Z" fill="#666666"/>
		<path d="M 306.0313 167.6563 C 307.1563 167.4375 308.375 167.0625 309.6563 166.5313 L 309.6563 163.375 C 307.1563 164.4688 304.625 165 302.0625 165 C 299.625 165 297.7344 164.3281 296.3906 162.9688 C 295.0469 161.6094 294.3438 159.625 294.2813 157 L 310.6719 157 L 310.6719 154.7188 C 310.6719 151.5 309.7969 148.9219 308.0625 146.9531 C 306.3125 144.9844 303.9531 144 300.9688 144 C 297.7656 144 295.2188 145.1094 293.3281 147.2969 C 291.4375 149.5 290.5 152.4688 290.5 156.1875 C 290.5 159.9063 291.5156 162.7969 293.5469 164.875 C 295.5781 166.9688 298.375 168 301.9063 168 C 303.5156 168 304.8906 167.8906 306.0313 167.6563 L 306.0313 167.6563 ZM 305.25 148.8125 C 306.25 150.0156 306.7656 151.75 306.7656 154 L 294.3594 154 C 294.5469 151.8125 295.2188 150.1094 296.3594 148.8594 C 297.4844 147.625 299.0156 147 300.9219 147 C 302.7969 147 304.2344 147.6094 305.25 148.8125 L 305.25 148.8125 Z" fill="#666666"/>
		<path d="M 323.5313 145.25 C 322.2969 146.0938 321.25 147.2656 320.3906 148.7969 L 320.2188 148.7969 L 319.7969 144 L 316.7969 144 L 316.7969 168 L 320.4375 168 L 320.4375 155.2031 C 320.4375 152.875 321.1094 150.9219 322.4531 149.3594 C 323.7969 147.7969 325.4219 147 327.3125 147 C 328.0625 147 328.9219 147.1094 329.8906 147.3281 L 330.375 144.2344 C 329.5469 144.0781 328.6094 144 327.5781 144 C 326.1094 144 324.75 144.4219 323.5313 145.25 L 323.5313 145.25 Z" fill="#666666"/>
		<path d="M 350.1875 166.8281 L 350.1875 163.7031 C 348.125 164.5781 346.125 165 344.1719 165 C 341.8906 165 340.1563 164.2344 339 162.7031 C 337.8438 161.1719 337.2656 158.9531 337.2656 156.0781 C 337.2656 150.0313 339.6406 147 344.4063 147 C 345.125 147 345.9375 147.1094 346.875 147.3281 C 347.7969 147.5469 348.6563 147.8125 349.4375 148.125 L 350.5313 145.1563 C 349.875 144.8438 348.9844 144.5781 347.8594 144.3438 C 346.7188 144.125 345.5938 144 344.4688 144 C 340.9375 144 338.2344 145.0625 336.3281 147.1719 C 334.4219 149.2969 333.4844 152.2813 333.4844 156.1406 C 333.4844 159.9219 334.4219 162.8438 336.2969 164.9063 C 338.1719 166.9688 340.8125 168 344.2188 168 C 346.6094 168 348.5938 167.6094 350.1875 166.8281 L 350.1875 166.8281 Z" fill="#666666"/>
		<path d="M 370.0313 167.6563 C 371.1563 167.4375 372.375 167.0625 373.6563 166.5313 L 373.6563 163.375 C 371.1563 164.4688 368.625 165 366.0625 165 C 363.625 165 361.7344 164.3281 360.3906 162.9688 C 359.0469 161.6094 358.3438 159.625 358.2813 157 L 374.6719 157 L 374.6719 154.7188 C 374.6719 151.5 373.7969 148.9219 372.0625 146.9531 C 370.3125 144.9844 367.9531 144 364.9688 144 C 361.7656 144 359.2188 145.1094 357.3281 147.2969 C 355.4375 149.5 354.5 152.4688 354.5 156.1875 C 354.5 159.9063 355.5156 162.7969 357.5469 164.875 C 359.5781 166.9688 362.375 168 365.9063 168 C 367.5156 168 368.8906 167.8906 370.0313 167.6563 L 370.0313 167.6563 ZM 369.25 148.8125 C 370.25 150.0156 370.7656 151.75 370.7656 154 L 358.3594 154 C 358.5469 151.8125 359.2188 150.1094 360.3594 148.8594 C 361.4844 147.625 363.0156 147 364.9219 147 C 366.7969 147 368.2344 147.6094 369.25 148.8125 L 369.25 148.8125 Z" fill="#666666"/>
	</g>
</svg>