<svg xmlns="http://www.w3.org/2000/svg" viewBox="0 0 221.954 32.979"><g fill="#426eb6"><path d="M17.089.48l16.753 23.858h1.008L34.611.48h9.937v32.018H27.602L10.753 8.593H9.697l.24 23.906H0V.48h17.089zM86.834.48v7.537H61.008v4.656h24.53v7.057h-24.53v5.088h26.019v7.68H51.408V.48h35.426zM102.241.48v11.617h5.328L120.242.288h14.93l-18.53 15.89 20.066 16.321h-14.785L107.57 20.258h-5.328v12.241h-9.745V.48h9.744zM150.626.48v23.858h22.754v8.16H140.4V.48h10.226zM218.786 2.208c2.448 1.872 3.168 5.088 3.168 14.257 0 9.217-.72 12.433-3.168 14.305-2.448 1.872-5.473 2.208-18.722 2.208-13.489 0-16.466-.336-18.914-2.208-2.496-1.92-3.168-5.088-3.168-14.498 0-8.929.72-12.193 3.168-14.065C183.598.336 186.575 0 199.968 0s16.369.336 18.818 2.208zm-30.291 8.113c-.576 1.104-.768 2.928-.768 7.008 0 3.984.288 5.281 1.44 6.193 1.296 1.008 2.832 1.152 10.896 1.152 7.825 0 9.409-.192 10.705-1.152 1.103-.864 1.44-2.256 1.44-6.144 0-4.753-.288-6.577-1.152-7.633-1.104-1.296-2.16-1.44-11.089-1.44-9.6 0-10.511.144-11.472 2.016z"></path></g></svg>